<svg xmlns="http://www.w3.org/2000/svg" width="1024" height="1024" viewBox="0 0 1024 1024" version="1.1"><path d="M 740.294 87.534 C 721.407 92.622, 702.983 109.735, 696.727 128 C 694.572 134.292, 694.485 136.104, 694.001 184.500 L 693.500 234.500 672.500 213.986 C 643.018 185.187, 640.556 184.039, 608.024 183.921 C 589.891 183.855, 587.945 184.026, 580.716 186.329 C 560.975 192.618, 543.149 211.541, 538.537 231.103 C 537.324 236.252, 537.026 245.501, 537.012 278.500 L 536.995 319.500 509.248 319.538 C 486.078 319.569, 480.427 319.864, 475 321.321 C 451.448 327.648, 430.570 346.160, 421.410 368.837 C 416.023 382.172, 416 382.614, 416 470.591 L 416 552.052 431.250 551.776 L 446.500 551.500 447 469.500 L 447.500 387.500 449.780 382.136 C 456.166 367.114, 467.819 357.141, 483.231 353.508 C 487.832 352.423, 495.845 352.026, 513.348 352.015 L 537.196 352 536.601 367.250 C 536.274 375.637, 535.611 383.876, 535.128 385.558 C 532.908 393.289, 527.573 400.609, 516.344 411.335 C 509.403 417.965, 509.118 418.123, 506.831 416.625 C 499.200 411.625, 485.649 412.612, 478.960 418.655 C 473.568 423.526, 471.603 429.213, 472.240 438.105 C 472.690 444.397, 473.538 446.788, 479.600 458.858 L 486.452 472.500 486.976 491.173 C 487.482 509.212, 487.582 509.934, 489.924 512.423 C 491.890 514.512, 493.277 515, 497.251 515 C 501.337 515, 502.641 514.513, 505.077 512.077 L 508 509.154 508 491.873 L 508 474.592 512.643 465.046 C 516.984 456.120, 518.368 454.396, 533.943 438.500 C 555.667 416.329, 559.873 410.380, 565.058 394.500 C 567.247 387.792, 567.361 385.836, 567.768 347.678 L 568.193 307.856 585.346 324.698 C 604.239 343.247, 609.148 346.585, 622.596 350.025 C 632.687 352.605, 661.275 352.861, 670.520 350.453 C 683.127 347.169, 693.739 341.313, 702.852 332.611 C 713.476 322.465, 719.794 312.037, 723.065 299.244 C 724.809 292.428, 725 287.986, 725 254.340 L 725 217 739.053 217 C 756.015 217, 764.334 215.355, 775.500 209.795 C 790.339 202.405, 801.602 191.477, 808.647 177.636 C 817.859 159.534, 818.440 135.543, 810.062 119.122 C 802.232 103.772, 787.276 91.977, 769.955 87.488 C 762.803 85.635, 747.254 85.659, 740.294 87.534 M 479.500 109.617 C 422 115.297, 371.344 130.387, 324.572 155.768 C 254.272 193.917, 193.692 257.968, 158.402 331.459 C 132.149 386.131, 119.932 439.940, 119.909 501 C 119.889 553.220, 125.296 587.565, 140.509 631.849 C 154.473 672.495, 173.971 707.827, 204 746.898 C 208.675 752.981, 212.859 757.967, 213.297 757.979 C 213.736 757.990, 213.961 746.413, 213.797 732.250 L 213.500 706.500 204.814 692.928 C 185.885 663.353, 171.174 628.548, 161.570 590.612 C 150.038 545.065, 148.290 485.615, 157.052 436.956 C 164.851 393.643, 184.134 344.592, 207.748 308 C 238.328 260.613, 281.282 219.031, 327.256 192.306 C 369.466 167.771, 414.235 152.115, 462.906 144.870 C 480.659 142.228, 519.466 141.252, 539.309 142.948 C 580.361 146.459, 622.250 156.747, 655.279 171.431 C 663.230 174.966, 666.406 174.794, 670.600 170.600 L 674 167.200 674 155.623 C 674 142.011, 675.019 143.293, 659.211 137.032 C 627.638 124.528, 595.582 116.255, 559.775 111.370 C 549.041 109.905, 489.697 108.609, 479.500 109.617 M 742.500 120.296 C 736.475 123.184, 730.829 128.801, 727.762 134.958 C 725.646 139.208, 725.480 140.970, 725.181 162.356 L 724.863 185.213 740.681 184.856 C 755.691 184.518, 756.797 184.354, 762.311 181.646 C 770.108 177.818, 778.395 169.564, 781.708 162.326 C 785.517 154.006, 785.587 142.779, 781.877 135 C 776.490 123.702, 768.965 118.837, 756 118.270 C 748.624 117.948, 746.839 118.216, 742.500 120.296 M 589.939 217.323 C 584.400 218.868, 580.365 221.642, 575.316 227.379 C 569.616 233.854, 567.989 239.454, 567.995 252.575 L 568 263.651 582.250 277.758 C 590.087 285.517, 597.715 292.810, 599.200 293.966 L 601.900 296.067 602.200 271.548 L 602.500 247.030 606.267 243.265 C 609.610 239.923, 610.591 239.500, 614.997 239.500 C 619.270 239.500, 620.417 239.955, 623.231 242.767 L 626.500 246.035 627 280.267 C 627.411 308.394, 627.768 314.910, 629 316.798 C 630.490 319.080, 630.628 319.094, 649.500 318.798 C 667.066 318.522, 668.859 318.323, 673.250 316.161 C 684.160 310.788, 692.302 298.703, 693.570 286 L 694.218 279.500 687.859 273.533 C 684.362 270.251, 670.555 256.858, 657.179 243.772 C 643.802 230.685, 631.427 219.199, 629.679 218.247 C 625.549 215.998, 597.062 215.336, 589.939 217.323 M 776.056 234.554 L 762.612 241.058 769.145 247.779 C 807.655 287.394, 837.829 336.707, 854.917 387.959 C 867.398 425.393, 872.997 460.275, 872.999 500.605 C 873.001 534.683, 870.025 560.770, 862.898 589.162 C 843.054 668.212, 800.654 734.489, 737.407 785.322 L 729.313 791.827 728.628 808.163 C 728.251 817.149, 727.676 825.985, 727.351 827.801 L 726.758 831.102 730.629 828.943 C 747.001 819.812, 779.285 792.376, 798.696 771.098 C 859.250 704.720, 891.159 636.816, 902.124 551 C 905.136 527.425, 905.431 477.172, 902.685 455.500 C 899.004 426.455, 893.799 403.339, 885.007 377 C 868.037 326.161, 843.197 283.753, 805.160 240.679 C 795.759 230.033, 793.426 227.976, 790.816 228.025 C 790.092 228.038, 783.450 230.976, 776.056 234.554 M 292.096 461.265 C 290.774 461.944, 288.749 463.770, 287.596 465.322 C 285.570 468.049, 285.490 469.379, 285.203 505.252 C 284.883 545.359, 284.966 546.110, 290.206 550.520 L 293.153 553 340 553 L 386.847 553 389.905 550.426 C 391.587 549.011, 393.451 546.198, 394.047 544.176 C 394.764 541.746, 395.024 528.472, 394.815 505 C 394.534 473.321, 394.310 469.152, 392.733 466.267 C 389.273 459.936, 389.804 459.998, 339.800 460.015 C 305.837 460.026, 293.898 460.339, 292.096 461.265" stroke="none" fill="#63d3bb" fill-rule="evenodd"/><path d="M 586.410 386.143 C 586.192 386.497, 584.040 392.613, 581.627 399.734 C 579.215 406.855, 576.721 413.653, 576.085 414.841 L 574.930 417 608.281 417 C 627.909 417, 644.074 417.446, 647.566 418.083 C 670.835 422.332, 689.530 439.246, 696.660 462.500 C 698.417 468.229, 698.500 476.453, 698.500 644.500 C 698.500 837.948, 698.929 824.674, 692.218 839 C 689.478 844.848, 686.920 848.262, 680.602 854.500 C 671.686 863.304, 665.033 867.170, 653.660 870.156 C 646.960 871.915, 638.519 871.999, 471.068 871.985 C 276.756 871.969, 289.742 872.408, 275.746 865.386 C 266.339 860.666, 254.860 849.231, 250.263 840 C 243.537 826.494, 243.946 839.808, 244.236 643.423 L 244.500 465.500 246.871 459 C 254.337 438.531, 267.672 425.784, 288.500 419.206 C 292.733 417.869, 301.820 417.570, 347.750 417.258 L 402 416.890 402 401.445 L 402 386 348.588 386 C 291.180 386, 287.723 386.245, 273.031 391.355 C 257.214 396.855, 240.412 409.557, 230.407 423.578 C 224.291 432.149, 218.669 444.678, 215.858 456 L 213.500 465.500 213.329 638 C 213.233 734.610, 213.556 814.679, 214.062 820 C 214.559 825.225, 215.697 832.425, 216.590 836 C 218.486 843.584, 225.420 858.844, 229.989 865.484 C 240.595 880.899, 257.062 893.162, 275.704 899.527 C 288.958 904.052, 286.570 903.997, 470.119 903.999 C 655.001 904, 651.802 904.076, 666.500 899.334 C 693.999 890.460, 716.225 867.734, 724.879 839.639 C 728.947 826.433, 729.140 816.407, 728.813 635 L 728.500 461.500 725.848 451.911 C 721.558 436.396, 714.562 424.425, 703.068 412.932 C 690.533 400.396, 679.025 394.028, 657 387.439 C 653.855 386.498, 586.947 385.270, 586.410 386.143 M 431.250 551.748 L 416 552.052 416 695.541 L 416 839.029 419.353 842.689 C 422.325 845.931, 423.275 846.356, 427.699 846.424 C 433.580 846.514, 437.032 844.909, 439.331 841.017 C 440.804 838.523, 441 834.079, 441 803.096 L 441 768 487.464 768 L 533.928 768 534.214 803.982 L 534.500 839.964 537.712 843.174 C 540.483 845.945, 541.619 846.385, 546 846.385 C 550.381 846.385, 551.517 845.945, 554.288 843.174 L 557.500 839.964 557.786 803.982 L 558.072 768 605.113 768 L 652.154 768 655.003 765.150 C 660.391 759.763, 659.582 750.394, 653.379 746.328 C 650.797 744.635, 647.169 744.479, 604.295 744.212 L 558 743.924 558 707.962 L 558 672 605.077 672 L 652.154 672 655.003 669.150 C 658.752 665.402, 659.702 660.281, 657.507 655.656 C 654.001 648.267, 655.905 648.534, 604.250 648.212 L 558 647.924 558 611 L 558 574.075 604.920 573.787 L 651.841 573.500 654.391 571.103 C 659.915 565.912, 659.869 557.402, 654.293 553.016 C 651.757 551.021, 650.652 551.002, 549.115 551.222 C 492.677 551.344, 439.637 551.581, 431.250 551.748 M 288.923 574.923 L 286 577.846 286 610.473 C 286 645.870, 286.214 647.410, 291.472 649.805 C 293.386 650.677, 306.757 651, 340.970 651 L 387.846 651 390.782 648.064 C 392.536 646.310, 393.971 643.594, 394.348 641.314 C 395.289 635.617, 395.045 586.186, 394.050 581.029 C 393.498 578.164, 392.236 575.740, 390.538 574.279 L 387.888 572 339.867 572 L 291.846 572 288.923 574.923 M 441 611 L 441 648 487.500 648 L 534 648 534 611 L 534 574 487.500 574 L 441 574 441 611 M 293.284 669.701 C 292.065 669.937, 289.928 671.485, 288.534 673.142 L 286 676.153 286 707.530 C 286 727.960, 286.379 739.737, 287.085 741.288 C 289.692 747.010, 289.599 747, 340.714 747 L 387.620 747 390.759 743.931 C 394.971 739.814, 395.196 737.648, 394.818 704.821 C 394.516 678.560, 394.393 676.997, 392.406 674.321 C 388.656 669.267, 386.998 669.107, 339.500 669.193 C 315.300 669.236, 294.503 669.465, 293.284 669.701 M 441.238 708.012 L 441.500 744.023 487.750 744.262 L 534 744.500 534 708.250 L 534 672 487.488 672 L 440.975 672 441.238 708.012 M 291.110 766.396 C 286.237 769.096, 286.073 770.321, 286.035 804.300 C 285.997 838.914, 286.300 841.023, 291.613 843.043 C 293.086 843.603, 313.551 844, 340.930 844 C 386.624 844, 387.792 843.951, 390.341 841.946 C 394.747 838.481, 395.164 834.833, 394.820 802.821 C 394.515 774.516, 394.403 773.012, 392.404 770.321 C 388.431 764.975, 388.966 765.028, 339.500 765.050 C 303.218 765.066, 292.995 765.351, 291.110 766.396" stroke="none" fill="#294751" fill-rule="evenodd"/></svg>